<svg width="32" height="32" viewBox="0 0 32 32" fill="none" xmlns="http://www.w3.org/2000/svg">
<path d="M16.2246 9.25333C18.3323 9.25333 19.7541 10.1456 20.5648 10.8911L23.7326 7.86C21.787 6.08778 19.2553 5 16.2246 5C11.8346 5 8.0432 7.46889 6.19739 11.0622L9.82665 13.8244C10.7371 11.1722 13.2564 9.25333 16.2246 9.25333Z" fill="white"/>
<path d="M26.9999 16.2445C26.9999 15.34 26.9251 14.68 26.7629 13.9956H16.2244V18.0778H22.4103C22.2856 19.0923 21.6121 20.62 20.1155 21.6467L23.6575 24.3356C25.7777 22.4167 26.9999 19.5934 26.9999 16.2445Z" fill="white"/>
<path d="M9.83902 18.1753C9.60206 17.4909 9.46487 16.7576 9.46487 15.9998C9.46487 15.242 9.60206 14.5087 9.82655 13.8242L6.19728 11.062C5.43651 12.5531 5 14.2276 5 15.9998C5 17.772 5.43651 19.4464 6.19728 20.9376L9.83902 18.1753Z" fill="white"/>
<path d="M16.2247 26.9997C19.2554 26.9997 21.7996 26.022 23.6579 24.3353L20.1159 21.6464C19.1681 22.2942 17.8959 22.7464 16.2247 22.7464C13.2565 22.7464 10.7372 20.8275 9.83922 18.1753L6.20996 20.9375C8.05577 24.5308 11.8347 26.9997 16.2247 26.9997Z" fill="white"/>
</svg>
